<?xml version="1.0" standalone="no"?>
<!DOCTYPE svg PUBLIC "-//W3C//DTD SVG 20010904//EN"
 "http://www.w3.org/TR/2001/REC-SVG-20010904/DTD/svg10.dtd">
<svg version="1.0" xmlns="http://www.w3.org/2000/svg"
 width="300.000000pt" height="300.000000pt" viewBox="0 0 300.000000 300.000000"
 preserveAspectRatio="xMidYMid meet">
<metadata>
Created by potrace 1.11, written by Peter Selinger 2001-2013
</metadata>
<g transform="translate(0.000000,300.000000) scale(0.100000,-0.100000)"
fill="#000000" stroke="none">
<path d="M400 1515 l0 -915 141 0 c130 0 141 1 146 19 5 19 6 19 59 0 125 -44
270 -44 398 1 216 74 361 265 396 521 21 149 -7 318 -73 444 -41 79 -155 192
-229 228 -156 75 -343 76 -488 2 -27 -14 -52 -25 -55 -25 -2 0 -6 143 -7 318
l-3 317 -142 3 -143 3 0 -916z m659 64 c110 -48 180 -162 189 -305 12 -195
-58 -338 -195 -401 -49 -23 -64 -25 -156 -21 -86 3 -110 8 -154 31 l-53 27 0
300 0 299 33 24 c103 78 227 94 336 46z"/>
<path d="M2048 2390 c-99 -30 -155 -148 -117 -247 25 -66 96 -115 168 -116 89
-1 158 54 182 143 35 135 -98 261 -233 220z"/>
<path d="M1790 1705 l0 -135 85 0 86 0 -1 -352 c-2 -359 0 -384 39 -480 20
-52 90 -116 149 -139 75 -28 220 -30 307 -5 49 15 129 49 143 61 2 2 -13 51
-33 109 l-37 105 -37 -15 c-58 -25 -93 -34 -138 -34 -62 0 -91 17 -103 59 -6
22 -10 222 -10 499 l0 462 -225 0 -225 0 0 -135z"/>
</g>
</svg>
