<svg width="16" height="22" xmlns="http://www.w3.org/2000/svg" xmlns:xlink="http://www.w3.org/1999/xlink"><defs><path d="M4.25 17h7.5v1.5h-7.5V17zm1.5 3h4.5v1.5h-4.5V20zM8 .5A7.5 7.5 0 00.5 8a6.855 6.855 0 002.595 5.7c.75.698 1.155 1.103 1.155 1.785h1.5c0-1.38-.832-2.152-1.643-2.895A5.363 5.363 0 012 8a6 6 0 1112 0 5.37 5.37 0 01-2.1 4.59c-.803.75-1.635 1.5-1.635 2.895h1.5c0-.69.397-1.087 1.155-1.792A6.863 6.863 0 0015.5 8 7.5 7.5 0 008 .5z" id="a"/></defs><use fill="#36464E" xlink:href="#a" fill-rule="evenodd"/></svg>