<svg width="48" height="48" fill="none" xmlns="http://www.w3.org/2000/svg"><path d="M24 45.54c-3.907 0-7.64-1.068-10.791-3.087l.584-.908c2.977 1.907 6.506 2.913 10.209 2.913 3.606 0 7.233-1.035 10.212-2.916l.577.914C31.64 44.445 27.809 45.54 24 45.54zm18-6a5.046 5.046 0 01-5.04-5.04A5.047 5.047 0 0142 29.46a5.047 5.047 0 015.04 5.04c0 2.778-2.26 5.04-5.04 5.04zm0-9a3.964 3.964 0 00-3.96 3.96A3.964 3.964 0 0042 38.46a3.964 3.964 0 003.96-3.96A3.964 3.964 0 0042 30.54zm-30 9H1.5a.539.539 0 01-.466-.813l5.25-9c.193-.332.739-.332.933 0l5.25 9a.541.541 0 01-.467.813zm-9.56-1.08h8.62l-4.31-7.387-4.31 7.387zm29.6-3.96h-1.08v-2.524a6.929 6.929 0 00-5.348-6.77.538.538 0 01-.412-.474.542.542 0 01.318-.544 3.739 3.739 0 002.218-3.413 3.74 3.74 0 00-3.735-3.735 3.74 3.74 0 00-3.735 3.735 3.74 3.74 0 002.22 3.413.541.541 0 01-.094 1.018 6.93 6.93 0 00-5.349 6.77V34.5h-1.08v-2.524a8.003 8.003 0 015.02-7.453 4.82 4.82 0 01-1.795-3.748 4.82 4.82 0 014.815-4.815 4.82 4.82 0 014.817 4.815 4.82 4.82 0 01-1.796 3.748 8.004 8.004 0 015.02 7.453V34.5h-.004zm11.941-7.46l-1.078-.082c.038-.481.056-.969.056-1.46 0-7.062-3.911-13.489-10.21-16.771l.498-.959C39.907 11.24 44.04 18.033 44.04 25.5c0 .52-.02 1.032-.059 1.54zm-39.962 0a20.1 20.1 0 01-.059-1.54c0-7.5 4.134-14.313 10.79-17.783l.499.959A18.916 18.916 0 005.04 25.5c0 .49.02.977.056 1.46l-1.077.08zm24.481-16h-9a.54.54 0 01-.54-.54v-9a.54.54 0 01.54-.54h9a.54.54 0 01.54.54v9a.54.54 0 01-.54.54zm-8.46-1.08h7.92V2.04h-7.92v7.92z" fill="#91AEBC"/></svg>