<svg width="500" height="500" fill="none" xmlns="http://www.w3.org/2000/svg"><g clip-path="url(#clip0)"><path fill-rule="evenodd" clip-rule="evenodd" d="M367.128 340.731l111.196 192.597-111.718 64.5-112.365-194.622c-22.557 2.028-45.306-8.866-57.375-29.77l-18.202-31.527c-16.568-28.697-6.736-65.393 21.962-81.961l53.311-30.779c25.02-14.446 56.119-8.823 74.659 11.874 1.687-7.766 3.153-16.744 4.214-27.389C334.5 156.5 348.5 143 366 142c13.065-.747 21.919 8.287 16.5 27.5a1773.7 1773.7 0 01-.738 2.607c-5.294 18.685-10.781 38.05-6.762 62.893.337 2.086.685 4.2 1.037 6.337 5.378 32.695 11.633 70.713-5.037 94.163a164.498 164.498 0 01-3.872 5.231z" fill="#fff"/><path d="M478.324 533.328l.5.866.866-.5-.5-.866-.866.5zM367.128 340.731l-.791-.611-.41.531.335.58.866-.5zm-.522 257.097l-.866.5.5.866.866-.5-.5-.866zM254.241 403.206l.866-.5-.319-.553-.636.057.089.996zm-57.375-29.77l.866-.5-.866.5zm-18.202-31.527l-.866.5.866-.5zm21.962-81.961l.5.866-.5-.866zm53.311-30.779l.5.866-.5-.866zm74.659 11.874l-.744.667 1.306 1.459.416-1.914-.978-.212zm4.214-27.389l.995.099.003-.035.001-.035-.999-.029zM366 142l-.057-.998.057.998zm16.5 27.5l.962.271-.962-.271zm-.738 2.607l-.962-.272.962.272zM375 235l-.987.16.987-.16zm1.037 6.337l.986-.162-.986.162zM371 335.5l.815.579-.815-.579zm108.19 197.328L367.994 340.231l-1.732 1 111.196 192.597 1.732-1zm-112.084 65.866l111.718-64.5-1-1.732-111.718 64.5 1 1.732zM253.375 403.706L365.74 598.328l1.732-1-112.365-194.622-1.732 1zM196 373.936c12.271 21.254 35.4 32.328 58.331 30.266l-.179-1.992c-22.184 1.995-44.553-8.72-56.42-29.274l-1.732 1zm-18.202-31.527L196 373.936l1.732-1-18.202-31.527-1.732 1zm22.328-83.327c-29.176 16.844-39.172 54.151-22.328 83.327l1.732-1c-16.292-28.219-6.624-64.303 21.596-80.595l-1-1.732zm53.311-30.78l-53.311 30.78 1 1.732 53.311-30.779-1-1.733zm75.904 12.074c-18.849-21.042-50.466-26.76-75.904-12.074l1 1.733c24.602-14.205 55.184-8.677 73.415 11.675l1.489-1.334zm.233.879c1.694-7.805 3.166-16.821 4.231-27.502l-1.99-.199c-1.058 10.61-2.518 19.55-4.196 27.277l1.955.424zm4.235-27.572c.844-28.535 4.762-46 10.542-56.429 2.879-5.195 6.208-8.623 9.836-10.818 3.629-2.196 7.618-3.195 11.87-3.438l-.114-1.996c-4.498.257-8.821 1.32-12.792 3.723-3.972 2.404-7.53 6.11-10.549 11.559-6.019 10.86-9.945 28.722-10.792 57.34l1.999.059zm32.248-70.685c6.298-.36 11.389 1.639 14.303 5.837 2.931 4.224 3.845 10.936 1.177 20.394l1.925.542c2.752-9.755 1.948-17.166-1.459-22.076-3.425-4.935-9.293-7.08-16.06-6.693l.114 1.996zm15.48 26.231c-.244.867-.49 1.735-.737 2.606l1.924.545.738-2.609-1.925-.542zm-.737 2.606c-5.294 18.683-10.845 38.241-6.787 63.325l1.974-.32c-3.98-24.602 1.443-43.774 6.737-62.46l-1.924-.545zm-6.787 63.325c.337 2.087.685 4.203 1.037 6.339l1.973-.324c-.351-2.137-.699-4.25-1.036-6.335l-1.974.32zm1.037 6.339c2.692 16.364 5.585 33.964 5.737 50.396.151 16.439-2.447 31.553-10.602 43.026l1.63 1.158c8.515-11.977 11.125-27.597 10.972-44.203-.154-16.613-3.077-34.37-5.764-50.701l-1.973.324zm-4.865 93.422a164.434 164.434 0 01-3.848 5.199l1.583 1.223a165.056 165.056 0 003.895-5.264l-1.63-1.158z" fill="#36464E"/><rect x="93.471" y="126.047" width="50" height="120" rx="25" transform="rotate(-60 93.47 126.047)" fill="#fff" stroke="#36464E" stroke-width="2"/><rect x="160" y="50" width="180" height="320" rx="24" fill="#fff" stroke="#36464E" stroke-width="2"/><path fill="#17FFFF" d="M180 70h140v30H180z"/><path stroke="#17FFFF" stroke-width="2" d="M181 156h138v95H181zm0 112h138v81H181z"/><path fill="#17FFFF" d="M180 110h140v10H180zm0 20h75v10h-75z"/><circle cx="290" cy="320" r="20" fill="#17FFFF"/><rect x="84.561" y="178.301" width="50" height="110" rx="25" transform="rotate(-60 84.561 178.301)" fill="#fff" stroke="#36464E" stroke-width="2"/><path d="M162.608 176.819l15.282 8.823c7.174 4.142 9.632 13.316 5.49 20.49v0c-4.142 7.175-13.316 9.633-20.49 5.491l-1.146-.662" stroke="#36464E" stroke-width="2"/><rect x="101.882" y="304.301" width="50" height="70" rx="25" transform="rotate(-60 101.882 304.301)" fill="#fff" stroke="#36464E" stroke-width="2"/><path d="M145.288 282.819l15.282 8.823c7.174 4.142 9.632 13.316 5.49 20.49v0c-4.142 7.175-13.316 9.633-20.49 5.491l-1.146-.662" stroke="#36464E" stroke-width="2"/><rect x="93.221" y="241.301" width="50" height="100" rx="25" transform="rotate(-60 93.221 241.301)" fill="#fff" stroke="#36464E" stroke-width="2"/><path d="M162.876 235.355l15.282 8.823c7.174 4.142 9.632 13.316 5.49 20.49v0c-4.142 7.174-13.316 9.632-20.49 5.49l-1.146-.661" stroke="#36464E" stroke-width="2"/></g></svg>