<svg width="500" height="500" fill="none" xmlns="http://www.w3.org/2000/svg"><g clip-path="url(#clip0)"><circle cx="190" cy="90" r="60" fill="#17FFFF"/><circle cx="190" cy="90" r="80" stroke="#17FFFF" stroke-width="2"/><mask id="a" maskUnits="userSpaceOnUse" x="98" y="68" width="304" height="442" fill="#000"><path fill="#fff" d="M98 68h304v442H98z"/><path fill-rule="evenodd" clip-rule="evenodd" d="M160 100c0-16.569 13.431-30 30-30 16.569 0 30 13.431 30 30v100c0-16.569 13.431-30 30-30 16.569 0 30 13.431 30 30v20c0-16.569 13.431-30 30-30 16.569 0 30 13.431 30 30v20c0-16.569 13.431-30 30-30 16.569 0 30 13.431 30 30v160c0 29.73-21.623 54.41-50 59.17V508H160v-48c-33.137 0-60-26.863-60-60V290c0-16.569 13.431-30 30-30 16.569 0 30 13.431 30 30V100z"/></mask><path fill-rule="evenodd" clip-rule="evenodd" d="M160 100c0-16.569 13.431-30 30-30 16.569 0 30 13.431 30 30v100c0-16.569 13.431-30 30-30 16.569 0 30 13.431 30 30v20c0-16.569 13.431-30 30-30 16.569 0 30 13.431 30 30v20c0-16.569 13.431-30 30-30 16.569 0 30 13.431 30 30v160c0 29.73-21.623 54.41-50 59.17V508H160v-48c-33.137 0-60-26.863-60-60V290c0-16.569 13.431-30 30-30 16.569 0 30 13.431 30 30V100z" fill="#fff"/><path d="M350 459.17l-.331-1.972-1.669.28v1.692h2zm0 48.83v2h2v-2h-2zm-190 0h-2v2h2v-2zm0-48h2v-2h-2v2zm30-392c-17.673 0-32 14.327-32 32h4c0-15.464 12.536-28 28-28v-4zm32 32c0-17.673-14.327-32-32-32v4c15.464 0 28 12.536 28 28h4zm0 100V100h-4v100h4zm28-32c-17.673 0-32 14.327-32 32h4c0-15.464 12.536-28 28-28v-4zm32 32c0-17.673-14.327-32-32-32v4c15.464 0 28 12.536 28 28h4zm0 20v-20h-4v20h4zm28-32c-17.673 0-32 14.327-32 32h4c0-15.464 12.536-28 28-28v-4zm32 32c0-17.673-14.327-32-32-32v4c15.464 0 28 12.536 28 28h4zm0 20v-20h-4v20h4zm28-32c-17.673 0-32 14.327-32 32h4c0-15.464 12.536-28 28-28v-4zm32 32c0-17.673-14.327-32-32-32v4c15.464 0 28 12.536 28 28h4zm0 50v-50h-4v50h4zm0 40v-40h-4v40h4zm0 70v-70h-4v70h4zm-51.669 61.143C379.655 456.223 402 430.723 402 400h-4c0 28.737-20.901 52.596-48.331 57.198l.662 3.945zM348 459.17V508h4v-48.83h-4zm2 46.83H160v4h190v-4zm-188 2v-48h-4v48h4zM98 400c0 34.242 27.758 62 62 62v-4c-32.033 0-58-25.967-58-58h-4zm0-110v110h4V290h-4zm32-32c-17.673 0-32 14.327-32 32h4c0-15.464 12.536-28 28-28v-4zm32 32c0-17.673-14.327-32-32-32v4c15.464 0 28 12.536 28 28h4zm-4-190v190h4V100h-4z" fill="#36464E" mask="url(#a)"/><path stroke="#36464E" stroke-width="2" d="M159 278v80m62-170v80m60-66v80m60-58v68"/></g></svg>