<svg width="48" height="48" fill="none" xmlns="http://www.w3.org/2000/svg"><path d="M13.503 47.04a6.548 6.548 0 01-6.54-6.54 6.548 6.548 0 016.54-6.54 6.52 6.52 0 013.039.75l3.188-5.007.91.58-3.188 5.009a6.536 6.536 0 012.591 5.21 6.546 6.546 0 01-6.54 6.538zm0-12c-3.01 0-5.46 2.45-5.46 5.46s2.45 5.46 5.46 5.46 5.46-2.45 5.46-5.46-2.448-5.46-5.46-5.46zm10.5 11.992a23.16 23.16 0 01-3.835-.317l.178-1.067c1.194.202 2.425.303 3.657.303 6.972 0 13.376-3.201 17.568-8.781l.864.648c-4.398 5.856-11.117 9.215-18.432 9.215zM46.5 37.29a.542.542 0 01-.273-.075l-8.992-5.258a.542.542 0 010-.933l8.992-5.242a.545.545 0 01.542-.003.544.544 0 01.271.468v10.5a.537.537 0 01-.273.468.5.5 0 01-.267.075zm-7.922-5.797l7.382 4.315v-8.617l-7.382 4.302zm-33.56 5.555a22.985 22.985 0 01-2.138-3.84l.99-.433a21.859 21.859 0 002.036 3.66l-.888.613zm-.329-6.333a.537.537 0 01-.381-.157l-3.189-3.174a.543.543 0 01-.001-.767l3.189-3.187a.539.539 0 01.763 0l3.183 3.181a.538.538 0 010 .764L5.07 30.556a.539.539 0 01-.381.16zM2.265 27l2.424 2.412 2.42-2.419-2.418-2.418-2.426 2.424zm10.877 3.265a12.54 12.54 0 01-1.679-6.271c0-5.729 3.87-10.724 9.411-12.147l.268 1.045a11.452 11.452 0 00-8.599 11.1c0 2.015.531 3.996 1.533 5.729l-.934.544zm10.861-1.232a5.046 5.046 0 01-5.04-5.04 5.047 5.047 0 014.503-5.011v-8.489h1.08v8.489a5.048 5.048 0 014.497 5.011c0 2.78-2.262 5.04-5.04 5.04zm0-9a3.965 3.965 0 00-3.96 3.96 3.965 3.965 0 003.96 3.96 3.964 3.964 0 003.959-3.96 3.963 3.963 0 00-3.959-3.96zm21.959 2.497c-.649-9.84-7.87-18.086-17.561-20.056l.215-1.059C38.784 3.48 46.36 12.134 47.04 22.458l-1.078.07zm-9.955-.997a.544.544 0 01-.27-.072l-3.898-2.25a.544.544 0 01-.271-.468v-4.5a.54.54 0 01.271-.468l3.898-2.25a.543.543 0 01.539 0l3.897 2.25a.542.542 0 01.271.469v4.5a.54.54 0 01-.271.468l-3.897 2.25a.534.534 0 01-.269.072zm-3.356-3.102l3.356 1.939 3.356-1.939v-3.875l-3.355-1.938-3.358 1.938v3.875zM23.997 6.54a2.794 2.794 0 01-2.785-2.798A2.787 2.787 0 0123.997.96a2.792 2.792 0 012.794 2.782 2.802 2.802 0 01-2.794 2.798zm0-4.5c-.94 0-1.707.763-1.707 1.702 0 .947.765 1.718 1.707 1.718.945 0 1.713-.771 1.713-1.718a1.71 1.71 0 00-1.713-1.702zM1.553 23.022c-.012 0-.026 0-.038-.002a.528.528 0 01-.5-.562l.002-.033a.531.531 0 01.58-.497.54.54 0 01.497.581.557.557 0 01-.541.513zm.4-3.526h.014-.014zm.801-2.921h.014-.014zm1.187-2.262a.505.505 0 01-.239-.059.524.524 0 01-.24-.706l.021-.042a.54.54 0 11.951.513.563.563 0 01-.493.294zm3.448-4.967a.531.531 0 01-.366-.142.528.528 0 01-.04-.743l.042-.042a.539.539 0 11.763.764.567.567 0 01-.399.163zm-1.888 2.358a.531.531 0 01-.366-.142.528.528 0 010-.784.539.539 0 11.763.763.56.56 0 01-.397.163zm-2.754 5.398a.531.531 0 01-.366-.143.528.528 0 010-.785.539.539 0 11.763.764.57.57 0 01-.397.164zm-.803 2.92a.531.531 0 01-.366-.142.528.528 0 010-.785.539.539 0 11.764.764.56.56 0 01-.398.163zm22.671 16.503a.531.531 0 01-.366-.142.528.528 0 010-.785.539.539 0 11.764.764.563.563 0 01-.398.163zm3.01-.55a.531.531 0 01-.366-.143.528.528 0 010-.785.539.539 0 11.764.764.563.563 0 01-.398.163zm5.07-3.15a.531.531 0 01-.365-.143.528.528 0 010-.785.539.539 0 11.763.764.563.563 0 01-.398.163zm2.918-5.246a.531.531 0 01-.366-.143.528.528 0 010-.784.539.539 0 11.764.764.558.558 0 01-.398.163zM9.563 7.282a.539.539 0 01-.404-.184.549.549 0 01.051-.77l.066-.054a.541.541 0 01.636.873.515.515 0 01-.35.135zM14.7 4.038a.545.545 0 01-.501-.317.528.528 0 01.313-.727.54.54 0 11.188 1.044zm-2.658 1.426a.545.545 0 01-.501-.316.525.525 0 01.313-.728.54.54 0 11.188 1.044zm5.493-2.49a.55.55 0 01-.526-.376.527.527 0 01.343-.67l.029-.01a.54.54 0 11.154 1.056zm4.131 33.332a.733.733 0 01-.18-.028.538.538 0 01-.37-.666.536.536 0 01.667-.371.522.522 0 01.433.61.554.554 0 01-.55.455zm8.698-1.594a.54.54 0 01-.279-1.004.552.552 0 01.747.165.528.528 0 01-.145.73.533.533 0 01-.323.108zm4.128-4.348a.54.54 0 01-.45-.84.527.527 0 01.716-.226.556.556 0 01.232.741.537.537 0 01-.498.325zm1.511-5.802a.54.54 0 01-.54-.54c0-.298.242-.554.54-.554.298 0 .54.226.54.524v.03a.54.54 0 01-.54.54z" fill="#91AEBC"/></svg>