<svg width="22" height="22" xmlns="http://www.w3.org/2000/svg" xmlns:xlink="http://www.w3.org/1999/xlink"><defs><path d="M16.25 11c-1.2 0-2.25.375-3.15 1.05L9.95 8.9C10.625 8 11 6.95 11 5.75A5.218 5.218 0 005.75.5 5.218 5.218 0 00.5 5.75 5.218 5.218 0 005.75 11c1.2 0 2.25-.375 3.15-1.05l3.15 3.15c-.675.9-1.05 1.95-1.05 3.15a5.218 5.218 0 005.25 5.25 5.218 5.218 0 005.25-5.25A5.218 5.218 0 0016.25 11zM2 5.75C2 3.65 3.65 2 5.75 2S9.5 3.65 9.5 5.75 7.85 9.5 5.75 9.5 2 7.85 2 5.75z" id="a"/></defs><use fill="#36464E" xlink:href="#a" fill-rule="evenodd"/></svg>