<svg width="170" height="20" xmlns="http://www.w3.org/2000/svg" xmlns:xlink="http://www.w3.org/1999/xlink"><defs><path id="a" d="M.232.12h11.246v19.512H.232z"/><path id="c" d="M.682.005h13.293V14H.682z"/><path id="e" d="M.753.12h12.18v19.787H.754z"/><path id="g" d="M.7.12h8.712v19.81H.7z"/><path id="i" d="M.531.413H13v13.18H.531z"/></defs><g fill="none" fill-rule="evenodd"><path d="M9.154 12.854c0 .717-.103 1.348-.298 1.875a4.01 4.01 0 01-.784 1.313 3.062 3.062 0 01-1.103.767c-.42.171-.865.259-1.319.259-.697 0-1.275-.093-1.722-.276-.368-.149-.664-.318-.873-.498V9.948a4.025 4.025 0 011.152-.769c.912-.409 1.974-.429 2.844-.062.409.172.773.427 1.077.757.309.338.562.759.745 1.248.185.494.281 1.077.281 1.732m2.695-2.786c-.291-.819-.703-1.536-1.229-2.125a5.607 5.607 0 00-1.901-1.387 5.844 5.844 0 00-2.412-.493c-.711 0-1.413.133-2.079.39-.41.157-.803.349-1.173.574V.12H0v19.512h3.055v-.456c.259.136.541.256.847.356a5.86 5.86 0 001.864.288 6.75 6.75 0 002.616-.505 6.01 6.01 0 002.065-1.45 6.771 6.771 0 001.351-2.235c.318-.851.482-1.814.482-2.86 0-.979-.146-1.889-.431-2.702" fill="#37474F"/><g transform="translate(26)"><mask id="b" fill="#fff"><use xlink:href="#a"/></mask><path d="M11.15 8.977c-.223-.646-.548-1.186-.969-1.602a3.848 3.848 0 00-1.526-.94c-.576-.198-1.228-.297-1.937-.297-.404 0-.797.042-1.17.13a5.853 5.853 0 00-1.076.36 6.84 6.84 0 00-.979.545c-.069.047-.14.095-.205.144V.12H.232v19.512h3.056V10.05a7.29 7.29 0 011.25-.75 3.31 3.31 0 011.392-.325c.796 0 1.38.2 1.79.616.402.409.607 1.042.607 1.879v8.16h3.151v-8.434c0-.844-.11-1.592-.328-2.22" fill="#37474F" mask="url(#b)"/></g><g transform="translate(41 6)"><mask id="d" fill="#fff"><use xlink:href="#c"/></mask><path d="M6.021 10.97a3.332 3.332 0 01-1.106-.842 4.1 4.1 0 01-.763-1.333c-.187-.53-.28-1.137-.28-1.799 0-.703.094-1.333.282-1.87.186-.527.44-.977.758-1.327a3.147 3.147 0 011.095-.786 3.386 3.386 0 011.332-.268c.497 0 .964.091 1.393.27.423.175.793.437 1.097.783.308.35.556.797.74 1.326.183.54.28 1.17.28 1.872a5.54 5.54 0 01-.28 1.814 4.135 4.135 0 01-.749 1.336 3.325 3.325 0 01-1.104.83c-.82.365-1.846.39-2.694-.007m7.471-6.83a6.527 6.527 0 00-1.364-2.21A6.005 6.005 0 0010.026.502C9.217.171 8.313.005 7.338.005c-.96 0-1.86.166-2.662.498a6.022 6.022 0 00-2.11 1.436 6.595 6.595 0 00-1.38 2.221c-.322.854-.49 1.801-.502 2.841.01 1.019.176 1.969.496 2.82a6.609 6.609 0 001.357 2.218 6.082 6.082 0 002.095 1.45c.811.34 1.723.511 2.705.511.975 0 1.88-.17 2.692-.519a6.097 6.097 0 002.104-1.46 6.79 6.79 0 001.36-2.23c.319-.859.48-1.804.48-2.818 0-1.029-.164-1.983-.48-2.835" fill="#37474F" mask="url(#d)"/></g><g transform="translate(67)"><mask id="f" fill="#fff"><use xlink:href="#e"/></mask><path d="M9.88 9.604v6.6a3.423 3.423 0 01-.987.675c-.398.175-.906.263-1.507.263a3.7 3.7 0 01-1.418-.268 3.004 3.004 0 01-1.086-.79 3.865 3.865 0 01-.724-1.332c-.178-.535-.264-1.18-.264-1.898 0-.655.089-1.24.27-1.735a3.76 3.76 0 01.744-1.244 3.064 3.064 0 011.075-.758c.41-.174.857-.263 1.33-.263.502 0 1 .074 1.482.214.4.117.768.296 1.086.536zm0-9.484v6.51a4.571 4.571 0 00-.914-.352 6.773 6.773 0 00-1.75-.215c-.961 0-1.853.166-2.64.496A5.895 5.895 0 002.523 7.95a6.228 6.228 0 00-1.312 2.16c-.305.833-.458 1.763-.458 2.764 0 1.102.159 2.097.474 2.958.318.873.767 1.62 1.34 2.222a5.69 5.69 0 002.028 1.382c.768.31 1.61.47 2.506.47.718 0 1.38-.126 1.96-.375.289-.13.563-.282.82-.454v.554h3.053V.12H9.88z" fill="#37474F" mask="url(#f)"/></g><g transform="translate(57)"><mask id="h" fill="#fff"><use xlink:href="#g"/></mask><path d="M8.633 16.804l-.417.194a3.523 3.523 0 01-.757.275 3.435 3.435 0 01-.797.083c-.25 0-.473-.046-.666-.133-.15-.07-.255-.202-.33-.402-.095-.26-.143-.61-.143-1.049L5.56.12H.7v2.884h1.843l-.025 12.431c0 .815.072 1.511.218 2.071.15.582.39 1.063.707 1.421.325.368.728.631 1.203.788.438.142.965.216 1.548.216.613 0 1.147-.066 1.61-.188a6.546 6.546 0 001.295-.51l.313-.162-.78-2.266z" fill="#37474F" mask="url(#h)"/></g><path d="M16.854 3.772c.178.187.391.334.635.439.242.109.503.163.778.163.263 0 .523-.054.761-.163a1.99 1.99 0 00.625-.439 2.17 2.17 0 00.412-.631 1.904 1.904 0 00-.002-1.536 2.131 2.131 0 00-.417-.617 2.06 2.06 0 00-.618-.42 1.925 1.925 0 00-1.539 0 1.996 1.996 0 00-1.046 1.037 1.908 1.908 0 00-.001 1.536c.1.236.243.448.412.631m5.963 13.032l-.415.194a3.562 3.562 0 01-.757.275 3.453 3.453 0 01-.8.083c-.247 0-.47-.046-.666-.133-.148-.07-.252-.202-.33-.402-.092-.26-.14-.61-.14-1.046l.037-9.41h-4.862V9.25h1.844l-.026 6.183c0 .815.073 1.511.22 2.071.15.582.39 1.063.706 1.421.324.368.726.631 1.204.788.438.142.963.216 1.547.216a6.35 6.35 0 001.612-.188 6.41 6.41 0 001.292-.51l.313-.162-.779-2.266zm69.378-.207c.669.397 1.399.796 2.151 1.02.884.256 1.964.304 2.845-.004a3.02 3.02 0 00.658-.323c.22-.149.395-.326.519-.53.135-.213.194-.448.194-.715 0-.398-.129-.736-.388-1.016-.263-.279-.704-.533-1.329-.76l-2.378-.888c-.969-.34-1.688-.784-2.156-1.317-.468-.533-.704-1.2-.704-1.999 0-.529.099-1.016.293-1.464.198-.448.485-.836.855-1.16a4.048 4.048 0 011.364-.764c.537-.183 1.148-.274 1.837-.274.889 0 1.395.075 2.296.296.631.153 1.159.407 2.15 1.14l-.934 1.386c-.394-.274-.696-.498-1.209-.672-.181-.06-.623-.289-1.398-.365-.875-.083-1.353-.025-1.797.132a2.674 2.674 0 00-.681.352 1.56 1.56 0 00-.452.5 1.344 1.344 0 00-.162.654c0 .417.123.746.381.99.25.247.674.47 1.265.681l2.391.841c1.029.34 1.775.811 2.244 1.403.476.594.711 1.303.711 2.125 0 .556-.11 1.06-.331 1.524a3.409 3.409 0 01-.933 1.178c-.407.32-.895.573-1.462.752-1.208.383-2.514.38-3.75.133a8.21 8.21 0 01-1.775-.565c-.144-.062-1.572-.857-1.491-.95l1.176-1.34m15.899-9.822h2.916v1.811h-2.94l-.038 7.185c0 .488.056.887.168 1.187.115.305.294.514.543.63.248.116.53.178.838.178.34 0 .632-.029.892-.095.253-.056.535-.159.841-.3l.515 1.496a6.068 6.068 0 01-1.213.48c-.424.116-.926.17-1.5.17-.548 0-1.02-.066-1.429-.199a2.28 2.28 0 01-1.019-.668c-.275-.31-.48-.73-.617-1.25-.138-.526-.207-1.18-.207-1.967l.038-6.847h-1.98v-1.81h2.004V2.76h2.188v4.015zm29.532 10.775c.666 0 1.224-.098 1.672-.294a4.029 4.029 0 001.237-.882v-6.97a3.75 3.75 0 00-1.383-.733 5.674 5.674 0 00-1.6-.227c-.527 0-1.024.097-1.49.292a3.51 3.51 0 00-1.216.862c-.348.373-.621.835-.823 1.382-.202.542-.3 1.165-.3 1.873 0 .767.097 1.446.29 2.03.19.581.459 1.076.803 1.471.345.395.756.696 1.238.893a4.015 4.015 0 001.572.303zM142.769.527v18.69h-2.234v-1.019a4.34 4.34 0 01-1.392.952c-.532.232-1.128.347-1.802.347a6.196 6.196 0 01-2.35-.44 5.211 5.211 0 01-1.886-1.285c-.534-.565-.951-1.259-1.25-2.076-.297-.825-.45-1.76-.45-2.82 0-.96.143-1.835.434-2.622a5.744 5.744 0 011.224-2.02 5.442 5.442 0 011.91-1.299c.742-.308 1.573-.462 2.483-.462.6 0 1.153.066 1.648.2.496.13.973.36 1.43.69V.527h2.235z" fill="#37474F"/><g transform="translate(157 6)"><mask id="j" fill="#fff"><use xlink:href="#i"/></mask><path d="M2.897 6.997c0 .71.103 1.354.306 1.936a4.6 4.6 0 00.842 1.472c.357.405.768.716 1.237.935.47.219.97.332 1.497.332a3.63 3.63 0 002.787-1.26c.352-.4.627-.894.827-1.47a5.946 5.946 0 00.301-1.945c0-.752-.103-1.417-.3-2.005-.201-.586-.475-1.075-.822-1.468a3.415 3.415 0 00-1.244-.887 4.007 4.007 0 00-1.55-.3c-.526 0-1.025.1-1.495.3a3.56 3.56 0 00-1.238.887c-.356.393-.633.882-.842 1.468-.204.588-.305 1.253-.305 2.005m-2.367 0c.007-.986.166-1.883.475-2.692a6.23 6.23 0 011.29-2.083A5.676 5.676 0 014.268.882c.759-.313 1.599-.47 2.51-.47.921 0 1.765.157 2.528.47a5.563 5.563 0 011.96 1.328 5.984 5.984 0 011.277 2.07c.304.814.458 1.709.458 2.694 0 .966-.154 1.859-.457 2.673a6.081 6.081 0 01-1.277 2.092 5.55 5.55 0 01-1.961 1.365c-.763.329-1.606.49-2.527.49-.94 0-1.787-.161-2.548-.48a5.707 5.707 0 01-1.958-1.355 6.161 6.161 0 01-1.272-2.08C.695 8.867.54 7.974.532 6.997" fill="#37474F" mask="url(#j)"/></g><path d="M149.707 3.49c.143.148.308.265.498.349a1.56 1.56 0 001.21 0c.188-.084.352-.201.495-.35.138-.148.249-.318.334-.511a1.52 1.52 0 000-1.206 1.64 1.64 0 00-.334-.492 1.656 1.656 0 00-.494-.338 1.457 1.457 0 00-.593-.125 1.562 1.562 0 00-1.116.463 1.64 1.64 0 00-.334.492 1.442 1.442 0 00-.125.594c0 .218.04.42.125.612.086.193.195.363.334.512m5.426 13.882a4.126 4.126 0 01-.841.301 3.63 3.63 0 01-.887.094 1.98 1.98 0 01-.843-.178c-.246-.116-.429-.325-.54-.63-.112-.3-.17-.699-.17-1.187l.04-8.996h-4.04v2.066h1.841l-.026 6.592c0 .787.067 1.441.203 1.967.136.52.345.941.62 1.251a2.28 2.28 0 001.02.668c.406.133.88.198 1.428.198.57 0 1.073-.054 1.5-.17a6.024 6.024 0 001.21-.479l-.514-1.497zm-31.679.184c-.425.626-.955 1.008-1.592 1.356-.635.35-1.372.521-2.203.521-.667 0-1.27-.102-1.813-.31a3.448 3.448 0 01-1.391-.97c-.381-.442-.68-.998-.885-1.677-.211-.68-.315-1.493-.315-2.446V6.776h2.319v7.277c0 .691.01 1.166.122 1.623.112.452.303.72.52.993.225.272.49.461.809.571.319.112.684.166 1.099.166.89 0 1.213-.065 1.806-.336.88-.41 1.29-1.005 1.29-1.005l-.007-9.289h2.35V19.2h-2.121l.012-1.644z" fill="#37474F"/></g></svg>