<?xml version="1.0" encoding="iso-8859-1"?>
<!-- Generator: Adobe Illustrator 16.0.0, SVG Export Plug-In . SVG Version: 6.00 Build 0)  -->
<!DOCTYPE svg PUBLIC "-//W3C//DTD SVG 1.1//EN" "http://www.w3.org/Graphics/SVG/1.1/DTD/svg11.dtd">
<svg version="1.1" id="Layer_1" xmlns="http://www.w3.org/2000/svg" xmlns:xlink="http://www.w3.org/1999/xlink" x="0px" y="0px"
	 width="172px" height="22px" viewBox="0 0 172 22" style="enable-background:new 0 0 172 22;" xml:space="preserve">
<g>
	<path style="fill:#37474F;" d="M12.85,11.008c-0.291-0.818-0.703-1.535-1.229-2.125c-0.53-0.592-1.168-1.059-1.9-1.387
		C8.992,7.17,8.18,7.004,7.309,7.004c-0.712,0-1.414,0.133-2.08,0.389c-0.41,0.158-0.803,0.35-1.173,0.574V1.061H1v19.512h3.056
		v-0.455c0.259,0.135,0.541,0.256,0.847,0.355c0.58,0.193,1.206,0.287,1.865,0.287c0.942,0,1.817-0.172,2.614-0.504
		c0.793-0.338,1.489-0.83,2.065-1.451c0.574-0.625,1.029-1.371,1.351-2.234c0.318-0.852,0.482-1.814,0.482-2.861
		C13.28,12.73,13.135,11.822,12.85,11.008z M10.154,13.795c0,0.717-0.103,1.348-0.298,1.875c-0.196,0.518-0.462,0.965-0.784,1.313
		C8.757,17.32,8.386,17.584,7.97,17.75c-0.421,0.17-0.865,0.258-1.319,0.258c-0.697,0-1.275-0.092-1.722-0.275
		c-0.368-0.148-0.664-0.318-0.873-0.498v-6.346c0.327-0.316,0.717-0.574,1.151-0.77c0.912-0.41,1.975-0.43,2.845-0.063
		c0.408,0.172,0.772,0.428,1.076,0.758c0.31,0.338,0.563,0.76,0.745,1.248C10.059,12.557,10.154,13.139,10.154,13.795z"/>
	<path style="fill:#37474F;" d="M38.15,9.916c-0.223-0.645-0.548-1.186-0.969-1.602c-0.416-0.42-0.929-0.736-1.526-0.938
		c-0.576-0.199-1.228-0.299-1.937-0.299c-0.404,0-0.798,0.041-1.172,0.129c-0.371,0.088-0.73,0.207-1.074,0.361
		c-0.34,0.152-0.669,0.336-0.979,0.545c-0.068,0.047-0.14,0.094-0.205,0.145V1.061h-3.056v19.512h3.056V10.99
		c0.391-0.293,0.814-0.543,1.25-0.748c0.469-0.217,0.938-0.326,1.393-0.326c0.796,0,1.38,0.201,1.79,0.615
		c0.401,0.41,0.606,1.043,0.606,1.879v8.162h3.151v-8.436C38.479,11.293,38.367,10.545,38.15,9.916z"/>
	<path style="fill:#37474F;" d="M55.493,11.078c-0.324-0.857-0.783-1.602-1.363-2.209c-0.583-0.613-1.289-1.094-2.104-1.426
		c-0.809-0.332-1.713-0.498-2.687-0.498c-0.961,0-1.86,0.166-2.662,0.498c-0.812,0.332-1.524,0.814-2.112,1.436
		c-0.589,0.619-1.052,1.367-1.378,2.223c-0.324,0.854-0.492,1.801-0.503,2.84c0.011,1.018,0.177,1.967,0.497,2.818
		c0.321,0.855,0.778,1.604,1.356,2.219c0.58,0.621,1.287,1.111,2.096,1.451c0.812,0.34,1.723,0.51,2.706,0.51
		c0.974,0,1.878-0.17,2.69-0.518c0.815-0.346,1.522-0.834,2.104-1.461c0.577-0.619,1.036-1.373,1.36-2.23
		c0.319-0.857,0.481-1.803,0.481-2.816C55.975,12.885,55.811,11.93,55.493,11.078z M48.021,17.91
		c-0.417-0.195-0.789-0.477-1.107-0.842c-0.318-0.361-0.573-0.811-0.762-1.332c-0.187-0.531-0.281-1.139-0.281-1.799
		c0-0.705,0.095-1.334,0.283-1.871c0.187-0.527,0.439-0.977,0.757-1.326c0.315-0.346,0.684-0.611,1.096-0.787
		c0.415-0.178,0.865-0.268,1.332-0.268c0.498,0,0.965,0.09,1.394,0.27c0.422,0.176,0.793,0.438,1.096,0.783
		c0.31,0.35,0.558,0.797,0.74,1.326c0.185,0.539,0.28,1.168,0.28,1.873c0,0.674-0.096,1.281-0.28,1.813
		c-0.183,0.521-0.433,0.969-0.748,1.336c-0.313,0.359-0.685,0.633-1.104,0.83C49.896,18.281,48.869,18.307,48.021,17.91z"/>
	<path style="fill:#37474F;" d="M77.881,1.061v6.51c-0.294-0.152-0.602-0.27-0.915-0.354c-0.524-0.141-1.116-0.213-1.749-0.213
		c-0.962,0-1.854,0.166-2.641,0.494c-0.797,0.328-1.489,0.799-2.054,1.393c-0.563,0.596-1.005,1.324-1.312,2.16
		c-0.305,0.832-0.458,1.764-0.458,2.764c0,1.102,0.159,2.098,0.474,2.959c0.318,0.873,0.768,1.621,1.34,2.221
		c0.571,0.604,1.25,1.07,2.028,1.383c0.769,0.311,1.611,0.471,2.505,0.471c0.72,0,1.381-0.127,1.961-0.375
		c0.289-0.131,0.563-0.283,0.82-0.455v0.555h3.053V1.061H77.881z M77.881,10.543v6.602c-0.306,0.291-0.638,0.521-0.988,0.674
		c-0.397,0.176-0.905,0.264-1.507,0.264c-0.514,0-0.987-0.092-1.419-0.27c-0.417-0.18-0.783-0.441-1.085-0.787
		c-0.305-0.355-0.552-0.803-0.724-1.334c-0.179-0.535-0.265-1.18-0.265-1.896c0-0.656,0.089-1.24,0.271-1.736
		c0.182-0.488,0.432-0.906,0.743-1.244c0.304-0.33,0.666-0.586,1.074-0.758c0.41-0.174,0.857-0.264,1.33-0.264
		c0.502,0,1,0.074,1.482,0.215C77.196,10.125,77.563,10.305,77.881,10.543z"/>
	<path style="fill:#37474F;" d="M66.633,17.744l-0.418,0.195c-0.272,0.131-0.531,0.225-0.756,0.273
		c-0.224,0.055-0.492,0.084-0.797,0.084c-0.25,0-0.474-0.047-0.666-0.133c-0.149-0.07-0.255-0.203-0.33-0.402
		c-0.095-0.262-0.144-0.611-0.144-1.049L63.56,1.061H58.7v2.883h1.843l-0.025,12.432c0,0.814,0.072,1.51,0.218,2.07
		c0.151,0.582,0.391,1.063,0.707,1.422c0.325,0.367,0.729,0.631,1.203,0.787c0.438,0.143,0.965,0.217,1.548,0.217
		c0.613,0,1.147-0.066,1.611-0.189c0.449-0.125,0.881-0.293,1.294-0.51l0.313-0.162L66.633,17.744z"/>
	<g>
		<path style="fill:#37474F;" d="M17.854,4.713c0.178,0.186,0.391,0.334,0.635,0.438c0.242,0.109,0.503,0.164,0.778,0.164
			c0.262,0,0.522-0.055,0.761-0.164c0.237-0.105,0.449-0.254,0.625-0.438c0.173-0.184,0.31-0.396,0.411-0.631
			c0.105-0.24,0.161-0.506,0.161-0.775c0-0.266-0.058-0.521-0.162-0.762c-0.103-0.232-0.245-0.439-0.417-0.617
			c-0.176-0.174-0.383-0.314-0.618-0.42c-0.491-0.215-1.059-0.211-1.539,0C18.25,1.609,18.04,1.754,17.862,1.93
			c-0.174,0.174-0.317,0.383-0.419,0.615c-0.105,0.242-0.162,0.498-0.162,0.762c0,0.27,0.055,0.533,0.161,0.775
			C17.543,4.318,17.686,4.529,17.854,4.713z"/>
		<path style="fill:#37474F;" d="M23.816,17.744l-0.414,0.195c-0.275,0.131-0.533,0.225-0.757,0.273
			c-0.224,0.055-0.492,0.084-0.801,0.084c-0.246,0-0.47-0.047-0.665-0.133c-0.148-0.07-0.252-0.203-0.331-0.402
			c-0.091-0.262-0.14-0.611-0.14-1.047l0.037-9.41h-4.861v2.887h1.844l-0.026,6.184c0,0.814,0.073,1.51,0.22,2.07
			c0.149,0.582,0.39,1.063,0.706,1.422c0.324,0.367,0.727,0.631,1.204,0.787c0.438,0.143,0.963,0.217,1.547,0.217
			c0.612,0,1.148-0.066,1.612-0.189c0.451-0.125,0.882-0.293,1.292-0.51l0.313-0.162L23.816,17.744z"/>
	</g>
	<path style="fill:#37474F;" d="M93.195,17.537c0.669,0.398,1.399,0.797,2.151,1.02c0.884,0.256,1.964,0.305,2.845-0.004
		c0.222-0.076,0.457-0.189,0.658-0.322c0.22-0.148,0.395-0.326,0.518-0.531c0.136-0.213,0.195-0.447,0.195-0.715
		c0-0.396-0.129-0.734-0.389-1.016c-0.263-0.279-0.703-0.531-1.328-0.76l-2.379-0.887c-0.969-0.342-1.688-0.785-2.155-1.318
		s-0.704-1.199-0.704-1.998c0-0.529,0.099-1.016,0.293-1.465c0.198-0.447,0.485-0.836,0.854-1.16
		c0.373-0.324,0.824-0.578,1.364-0.764c0.537-0.182,1.148-0.273,1.837-0.273c0.89,0,1.396,0.074,2.296,0.295
		c0.631,0.154,1.159,0.408,2.15,1.141l-0.934,1.387c-0.395-0.273-0.696-0.498-1.209-0.672c-0.182-0.061-0.623-0.289-1.398-0.365
		c-0.875-0.084-1.353-0.025-1.797,0.131c-0.263,0.092-0.491,0.217-0.682,0.354c-0.189,0.137-0.341,0.303-0.451,0.498
		c-0.107,0.195-0.162,0.414-0.162,0.654c0,0.418,0.123,0.746,0.381,0.99c0.25,0.248,0.674,0.471,1.264,0.682l2.393,0.842
		c1.027,0.338,1.774,0.811,2.244,1.402c0.476,0.594,0.711,1.303,0.711,2.125c0,0.557-0.111,1.059-0.331,1.523
		c-0.219,0.459-0.532,0.848-0.934,1.178c-0.407,0.32-0.895,0.574-1.462,0.752c-1.208,0.385-2.514,0.379-3.75,0.135
		c-0.611-0.123-1.209-0.311-1.774-0.566c-0.146-0.063-1.572-0.857-1.491-0.949C92.02,18.879,93.188,17.547,93.195,17.537z"/>
	<path style="fill:#37474F;" d="M109.095,7.717h2.916v1.811h-2.94l-0.037,7.186c0,0.488,0.056,0.887,0.168,1.186
		c0.114,0.307,0.294,0.516,0.543,0.631c0.248,0.115,0.528,0.178,0.838,0.178c0.339,0,0.632-0.029,0.892-0.094
		c0.253-0.057,0.535-0.16,0.841-0.301l0.516,1.496c-0.385,0.201-0.789,0.363-1.213,0.48c-0.425,0.115-0.927,0.168-1.502,0.168
		c-0.547,0-1.019-0.064-1.428-0.197c-0.4-0.131-0.739-0.352-1.019-0.668c-0.275-0.311-0.48-0.73-0.617-1.25
		c-0.138-0.527-0.207-1.18-0.207-1.967l0.038-6.848H104.9V7.717h2.006V3.701h2.188V7.717z"/>
	<path style="fill:#37474F;" d="M143.769,1.467v18.691h-2.233v-1.02c-0.402,0.406-0.864,0.727-1.393,0.951
		c-0.531,0.232-1.128,0.348-1.802,0.348c-0.843,0-1.626-0.148-2.349-0.441c-0.728-0.287-1.354-0.721-1.888-1.283
		c-0.533-0.566-0.95-1.26-1.249-2.076c-0.297-0.824-0.45-1.76-0.45-2.822c0-0.959,0.142-1.832,0.434-2.621
		c0.286-0.789,0.698-1.463,1.224-2.02c0.524-0.557,1.165-0.99,1.911-1.299c0.741-0.307,1.572-0.461,2.482-0.461
		c0.601,0,1.153,0.066,1.647,0.197c0.496,0.133,0.974,0.363,1.432,0.691V1.467H143.769z M138.626,18.492
		c0.666,0,1.224-0.098,1.672-0.295c0.446-0.199,0.859-0.494,1.237-0.883v-6.969c-0.402-0.338-0.858-0.58-1.383-0.732
		c-0.521-0.152-1.055-0.229-1.6-0.229c-0.527,0-1.024,0.098-1.49,0.293c-0.463,0.197-0.867,0.482-1.217,0.861
		c-0.348,0.373-0.621,0.836-0.822,1.383c-0.202,0.541-0.301,1.164-0.301,1.873c0,0.766,0.098,1.445,0.291,2.027
		c0.19,0.582,0.458,1.078,0.803,1.473c0.345,0.396,0.756,0.695,1.237,0.895C137.536,18.391,138.057,18.492,138.626,18.492z"/>
	<path style="fill:#37474F;" d="M158.531,13.938c0.007-0.986,0.166-1.885,0.475-2.693c0.307-0.805,0.74-1.502,1.29-2.082
		c0.554-0.582,1.212-1.027,1.972-1.34c0.759-0.313,1.598-0.469,2.511-0.469c0.921,0,1.764,0.156,2.527,0.469
		c0.765,0.313,1.421,0.756,1.962,1.328c0.548,0.572,0.975,1.264,1.275,2.07c0.304,0.813,0.457,1.707,0.457,2.693
		c0,0.967-0.153,1.859-0.457,2.674c-0.301,0.813-0.728,1.51-1.275,2.09c-0.541,0.588-1.197,1.047-1.962,1.365
		c-0.764,0.33-1.606,0.49-2.527,0.49c-0.938,0-1.786-0.16-2.548-0.48c-0.762-0.322-1.414-0.773-1.957-1.354
		c-0.545-0.582-0.97-1.275-1.273-2.08C158.693,15.807,158.538,14.914,158.531,13.938z M160.896,13.938
		c0,0.711,0.102,1.354,0.306,1.936c0.209,0.574,0.487,1.063,0.844,1.471c0.356,0.406,0.767,0.717,1.235,0.936
		c0.472,0.221,0.969,0.332,1.497,0.332c0.552,0,1.066-0.109,1.545-0.328c0.472-0.215,0.888-0.521,1.241-0.932
		c0.354-0.4,0.628-0.893,0.829-1.469c0.198-0.574,0.301-1.223,0.301-1.945c0-0.754-0.103-1.418-0.301-2.006
		c-0.201-0.586-0.474-1.074-0.822-1.467c-0.349-0.391-0.763-0.689-1.244-0.889c-0.479-0.199-0.997-0.299-1.549-0.299
		c-0.528,0-1.025,0.1-1.497,0.299c-0.469,0.199-0.879,0.498-1.235,0.889c-0.356,0.393-0.635,0.881-0.844,1.467
		C160.998,12.52,160.896,13.184,160.896,13.938z"/>
	<g>
		<path style="fill:#37474F;" d="M150.707,4.43c0.143,0.148,0.308,0.266,0.498,0.35c0.195,0.082,0.401,0.123,0.618,0.123
			c0.206,0,0.405-0.041,0.593-0.123c0.187-0.084,0.352-0.201,0.494-0.35c0.137-0.148,0.249-0.318,0.334-0.512
			c0.083-0.191,0.126-0.395,0.126-0.611c0-0.209-0.043-0.406-0.126-0.596c-0.085-0.189-0.197-0.352-0.334-0.492
			c-0.143-0.141-0.308-0.254-0.494-0.338c-0.188-0.082-0.387-0.123-0.593-0.123c-0.217,0-0.423,0.041-0.618,0.123
			c-0.19,0.084-0.355,0.197-0.498,0.338c-0.139,0.141-0.248,0.303-0.334,0.492c-0.084,0.189-0.125,0.387-0.125,0.596
			c0,0.217,0.041,0.42,0.125,0.611C150.459,4.111,150.568,4.281,150.707,4.43z"/>
		<path style="fill:#37474F;" d="M156.133,18.313c-0.303,0.141-0.583,0.244-0.841,0.301c-0.255,0.064-0.552,0.094-0.888,0.094
			c-0.313,0-0.592-0.063-0.842-0.178c-0.246-0.115-0.43-0.324-0.54-0.631c-0.112-0.299-0.17-0.697-0.17-1.186l0.039-8.996h-0.629
			h-1.56h-1.851v2.066h1.841l-0.027,6.592c0,0.787,0.068,1.439,0.205,1.967c0.135,0.52,0.344,0.939,0.62,1.25
			c0.276,0.316,0.617,0.537,1.019,0.668c0.406,0.133,0.881,0.197,1.428,0.197c0.571,0,1.073-0.053,1.5-0.168
			c0.424-0.117,0.828-0.279,1.211-0.48L156.133,18.313z"/>
	</g>
	<path style="fill:#37474F;" d="M124.454,18.496c-0.425,0.627-0.956,1.008-1.592,1.357c-0.635,0.348-1.372,0.52-2.203,0.52
		c-0.667,0-1.271-0.102-1.813-0.311c-0.545-0.207-1.008-0.533-1.391-0.969c-0.381-0.443-0.68-0.998-0.885-1.678
		c-0.211-0.68-0.315-1.492-0.315-2.445V7.717h2.319v7.275c0,0.693,0.01,1.166,0.122,1.625c0.112,0.451,0.302,0.719,0.521,0.992
		c0.225,0.271,0.489,0.461,0.809,0.57c0.318,0.113,0.684,0.166,1.099,0.166c0.89,0,1.213-0.064,1.806-0.336
		c0.881-0.41,1.29-1.004,1.29-1.004l-0.007-9.289h2.352v12.424h-2.122L124.454,18.496z"/>
</g>
</svg>
